{
      "notes": [
        {
          "name": "G1",
          "midi": 31,
          "time": 1.2,
          "velocity": 0.7874015748031497,
          "duration": 2.3999999999999995
        },
        {
          "name": "G1",
          "midi": 31,
          "time": 3.5999999999999996,
          "velocity": 0.7874015748031497,
          "duration": 2.4000000000000004
        },
        {
          "name": "G1",
          "midi": 31,
          "time": 6,
          "velocity": 0.7874015748031497,
          "duration": 2.4000000000000004
        },
        {
          "name": "D0",
          "midi": 14,
          "time": 8.4,
          "velocity": 0.7874015748031497,
          "duration": 2.4000000000000004
        },
        {
          "name": "D0",
          "midi": 14,
          "time": 10.8,
          "velocity": 0.7874015748031497,
          "duration": 2.4000000000000004
        },
        {
          "name": "G1",
          "midi": 31,
          "time": 13.200000000000001,
          "velocity": 0.7874015748031497,
          "duration": 2.4000000000000004
        },
        {
          "name": "D0",
          "midi": 14,
          "time": 15.600000000000001,
          "velocity": 0.7874015748031497,
          "duration": 2.3999999999999986
        },
        {
          "name": "G1",
          "midi": 31,
          "time": 18,
          "velocity": 0.7874015748031497,
          "duration": 1.1999999999999993
        },
        {
          "name": "G1",
          "midi": 31,
          "time": 19.2,
          "velocity": 0.7874015748031497,
          "duration": 0.14999999999999858
        },
        {
          "name": "G1",
          "midi": 31,
          "time": 19.349999999999998,
          "velocity": 0.7874015748031497,
          "duration": 0.14999999999999858
        },
        {
          "name": "G1",
          "midi": 31,
          "time": 19.499999999999996,
          "velocity": 0.7874015748031497,
          "duration": 0.14999999999999858
        },
        {
          "name": "G1",
          "midi": 31,
          "time": 19.649999999999995,
          "velocity": 0.7874015748031497,
          "duration": 0.14999999999999858
        },
        {
          "name": "G1",
          "midi": 31,
          "time": 19.799999999999994,
          "velocity": 0.7874015748031497,
          "duration": 0.14999999999999858
        },
        {
          "name": "G1",
          "midi": 31,
          "time": 19.949999999999992,
          "velocity": 0.7874015748031497,
          "duration": 0.14999999999999858
        },
        {
          "name": "G1",
          "midi": 31,
          "time": 20.09999999999999,
          "velocity": 0.7874015748031497,
          "duration": 0.14999999999999858
        },
        {
          "name": "G1",
          "midi": 31,
          "time": 20.24999999999999,
          "velocity": 0.7874015748031497,
          "duration": 0.14999999999999858
        },
        {
          "name": "D0",
          "midi": 14,
          "time": 20.399999999999988,
          "velocity": 0.7874015748031497,
          "duration": 0.3000000000000007
        },
        {
          "name": "D0",
          "midi": 14,
          "time": 20.99999999999999,
          "velocity": 0.7874015748031497,
          "duration": 0.3000000000000007
        },
        {
          "name": "D0",
          "midi": 14,
          "time": 21.59999999999999,
          "velocity": 0.7874015748031497,
          "duration": 0.3000000000000007
        },
        {
          "name": "D0",
          "midi": 14,
          "time": 22.79999999999999,
          "velocity": 0.7874015748031497,
          "duration": 0.3000000000000007
        },
        {
          "name": "G1",
          "midi": 31,
          "time": 23.39999999999999,
          "velocity": 0.7874015748031497,
          "duration": 0.3000000000000007
        },
        {
          "name": "D0",
          "midi": 14,
          "time": 23.999999999999993,
          "velocity": 0.7874015748031497,
          "duration": 0.3000000000000007
        },
        {
          "name": "D0",
          "midi": 14,
          "time": 24.299999999999994,
          "velocity": 0.7874015748031497,
          "duration": 0.3000000000000007
        },
        {
          "name": "G1",
          "midi": 31,
          "time": 25.199999999999996,
          "velocity": 0.7874015748031497,
          "duration": 0.3000000000000007
        },
        {
          "name": "G1",
          "midi": 31,
          "time": 25.799999999999997,
          "velocity": 0.7874015748031497,
          "duration": 0.3000000000000007
        },
        {
          "name": "G1",
          "midi": 31,
          "time": 26.4,
          "velocity": 0.7874015748031497,
          "duration": 0.3000000000000007
        },
        {
          "name": "D0",
          "midi": 14,
          "time": 27.599999999999998,
          "velocity": 0.7874015748031497,
          "duration": 0.3000000000000007
        },
        {
          "name": "G1",
          "midi": 31,
          "time": 28.2,
          "velocity": 0.7874015748031497,
          "duration": 0.3000000000000007
        },
        {
          "name": "D0",
          "midi": 14,
          "time": 28.8,
          "velocity": 0.7874015748031497,
          "duration": 0.14999999999999858
        },
        {
          "name": "D0",
          "midi": 14,
          "time": 28.95,
          "velocity": 0.7874015748031497,
          "duration": 0.14999999999999858
        },
        {
          "name": "G1",
          "midi": 31,
          "time": 29.099999999999998,
          "velocity": 0.7874015748031497,
          "duration": 0.14999999999999858
        },
        {
          "name": "G1",
          "midi": 31,
          "time": 29.249999999999996,
          "velocity": 0.7874015748031497,
          "duration": 0.14999999999999858
        },
        {
          "name": "D0",
          "midi": 14,
          "time": 29.399999999999995,
          "velocity": 0.7874015748031497,
          "duration": 0.14999999999999858
        },
        {
          "name": "D0",
          "midi": 14,
          "time": 29.549999999999994,
          "velocity": 0.7874015748031497,
          "duration": 0.14999999999999858
        },
        {
          "name": "G1",
          "midi": 31,
          "time": 29.699999999999992,
          "velocity": 0.7874015748031497,
          "duration": 0.14999999999999858
        },
        {
          "name": "G1",
          "midi": 31,
          "time": 29.84999999999999,
          "velocity": 0.7874015748031497,
          "duration": 0.14999999999999858
        },
        {
          "name": "D0",
          "midi": 14,
          "time": 30.59999999999999,
          "velocity": 0.7874015748031497,
          "duration": 1.1999999999999993
        },
        {
          "name": "D0",
          "midi": 14,
          "time": 31.79999999999999,
          "velocity": 0.7874015748031497,
          "duration": 1.2000000000000028
        },
        {
          "name": "G1",
          "midi": 31,
          "time": 32.99999999999999,
          "velocity": 0.7874015748031497,
          "duration": 1.2000000000000028
        },
        {
          "name": "D0",
          "midi": 14,
          "time": 34.199999999999996,
          "velocity": 0.7874015748031497,
          "duration": 1.2000000000000028
        },
        {
          "name": "G1",
          "midi": 31,
          "time": 35.4,
          "velocity": 0.7874015748031497,
          "duration": 1.2000000000000028
        },
        {
          "name": "G1",
          "midi": 31,
          "time": 36.6,
          "velocity": 0.7874015748031497,
          "duration": 1.2000000000000028
        },
        {
          "name": "D0",
          "midi": 14,
          "time": 37.800000000000004,
          "velocity": 0.7874015748031497,
          "duration": 0.6000000000000014
        },
        {
          "name": "G1",
          "midi": 31,
          "time": 38.400000000000006,
          "velocity": 0.7874015748031497,
          "duration": 0.14999999999999858
        },
        {
          "name": "G1",
          "midi": 31,
          "time": 38.550000000000004,
          "velocity": 0.7874015748031497,
          "duration": 0.14999999999999858
        },
        {
          "name": "G1",
          "midi": 31,
          "time": 38.7,
          "velocity": 0.7874015748031497,
          "duration": 0.14999999999999858
        },
        {
          "name": "D0",
          "midi": 14,
          "time": 38.85,
          "velocity": 0.7874015748031497,
          "duration": 0.14999999999999858
        },
        {
          "name": "D0",
          "midi": 14,
          "time": 39,
          "velocity": 0.7874015748031497,
          "duration": 0.14999999999999858
        },
        {
          "name": "D0",
          "midi": 14,
          "time": 39.15,
          "velocity": 0.7874015748031497,
          "duration": 0.14999999999999858
        },
        {
          "name": "D0",
          "midi": 14,
          "time": 39.3,
          "velocity": 0.7874015748031497,
          "duration": 0.14999999999999858
        },
        {
          "name": "D0",
          "midi": 14,
          "time": 39.3,
          "velocity": 0.7874015748031497,
          "duration": 0.14999999999999858
        },
        {
          "name": "D0",
          "midi": 14,
          "time": 49.199999999999996,
          "velocity": 0.7874015748031497,
          "duration": 0.6000000000000014
        },
        {
          "name": "D0",
          "midi": 14,
          "time": 50.099999999999994,
          "velocity": 0.7874015748031497,
          "duration": 0.29999999999999716
        },
        {
          "name": "D0",
          "midi": 14,
          "time": 50.69999999999999,
          "velocity": 0.7874015748031497,
          "duration": 0.14999999999999858
        },
        {
          "name": "G1",
          "midi": 31,
          "time": 50.84999999999999,
          "velocity": 0.7874015748031497,
          "duration": 0.45000000000000284
        },
        {
          "name": "G1",
          "midi": 31,
          "time": 51.59999999999999,
          "velocity": 0.7874015748031497,
          "duration": 0.45000000000000284
        },
        {
          "name": "D0",
          "midi": 14,
          "time": 52.49999999999999,
          "velocity": 0.7874015748031497,
          "duration": 0.29999999999999716
        },
        {
          "name": "G1",
          "midi": 31,
          "time": 53.09999999999999,
          "velocity": 0.7874015748031497,
          "duration": 0.14999999999999858
        },
        {
          "name": "D0",
          "midi": 14,
          "time": 53.249999999999986,
          "velocity": 0.7874015748031497,
          "duration": 0.75
        },
        {
          "name": "D0",
          "midi": 14,
          "time": 53.999999999999986,
          "velocity": 0.7874015748031497,
          "duration": 0.6000000000000014
        },
        {
          "name": "G1",
          "midi": 31,
          "time": 54.899999999999984,
          "velocity": 0.7874015748031497,
          "duration": 0.29999999999999716
        },
        {
          "name": "G1",
          "midi": 31,
          "time": 55.49999999999998,
          "velocity": 0.7874015748031497,
          "duration": 0.14999999999999858
        },
        {
          "name": "G1",
          "midi": 31,
          "time": 55.64999999999998,
          "velocity": 0.7874015748031497,
          "duration": 0.45000000000000284
        },
        {
          "name": "D0",
          "midi": 14,
          "time": 56.39999999999998,
          "velocity": 0.7874015748031497,
          "duration": 0.45000000000000284
        },
        {
          "name": "D0",
          "midi": 14,
          "time": 57.29999999999998,
          "velocity": 0.7874015748031497,
          "duration": 0.29999999999999716
        },
        {
          "name": "D0",
          "midi": 14,
          "time": 57.59999999999998,
          "velocity": 0.7874015748031497,
          "duration": 0.14999999999999858
        },
        {
          "name": "D0",
          "midi": 14,
          "time": 57.74999999999998,
          "velocity": 0.7874015748031497,
          "duration": 0.14999999999999858
        },
        {
          "name": "D0",
          "midi": 14,
          "time": 57.89999999999998,
          "velocity": 0.7874015748031497,
          "duration": 0.14999999999999858
        },
        {
          "name": "D0",
          "midi": 14,
          "time": 58.049999999999976,
          "velocity": 0.7874015748031497,
          "duration": 0.14999999999999858
        },
        {
          "name": "D0",
          "midi": 14,
          "time": 58.199999999999974,
          "velocity": 0.7874015748031497,
          "duration": 0.14999999999999858
        },
        {
          "name": "D0",
          "midi": 14,
          "time": 58.34999999999997,
          "velocity": 0.7874015748031497,
          "duration": 0.14999999999999858
        },
        {
          "name": "D0",
          "midi": 14,
          "time": 58.49999999999997,
          "velocity": 0.7874015748031497,
          "duration": 0.14999999999999858
        },
        {
          "name": "G1",
          "midi": 31,
          "time": 58.79999999999997,
          "velocity": 0.7874015748031497,
          "duration": 0.29999999999999716
        },
        {
          "name": "G1",
          "midi": 31,
          "time": 59.39999999999996,
          "velocity": 0.7874015748031497,
          "duration": 0.29999999999999716
        },
        {
          "name": "G1",
          "midi": 31,
          "time": 59.99999999999996,
          "velocity": 0.7874015748031497,
          "duration": 0.29999999999999716
        },
        {
          "name": "G1",
          "midi": 31,
          "time": 61.19999999999995,
          "velocity": 0.7874015748031497,
          "duration": 0.29999999999999716
        },
        {
          "name": "D0",
          "midi": 14,
          "time": 61.79999999999995,
          "velocity": 0.7874015748031497,
          "duration": 0.29999999999999716
        },
        {
          "name": "G1",
          "midi": 31,
          "time": 62.39999999999994,
          "velocity": 0.7874015748031497,
          "duration": 0.29999999999999716
        },
        {
          "name": "G1",
          "midi": 31,
          "time": 62.69999999999994,
          "velocity": 0.7874015748031497,
          "duration": 0.29999999999999716
        },
        {
          "name": "D0",
          "midi": 14,
          "time": 63.59999999999994,
          "velocity": 0.7874015748031497,
          "duration": 0.29999999999999716
        },
        {
          "name": "D0",
          "midi": 14,
          "time": 64.19999999999993,
          "velocity": 0.7874015748031497,
          "duration": 0.29999999999999716
        },
        {
          "name": "G1",
          "midi": 31,
          "time": 64.79999999999993,
          "velocity": 0.7874015748031497,
          "duration": 0.29999999999999716
        },
        {
          "name": "D0",
          "midi": 14,
          "time": 65.99999999999993,
          "velocity": 0.7874015748031497,
          "duration": 0.29999999999999716
        },
        {
          "name": "D0",
          "midi": 14,
          "time": 66.59999999999992,
          "velocity": 0.7874015748031497,
          "duration": 0.29999999999999716
        },
        {
          "name": "D0",
          "midi": 14,
          "time": 67.19999999999992,
          "velocity": 0.7874015748031497,
          "duration": 0.29999999999999716
        },
        {
          "name": "G1",
          "midi": 31,
          "time": 67.49999999999991,
          "velocity": 0.7874015748031497,
          "duration": 0.29999999999999716
        },
        {
          "name": "G1",
          "midi": 31,
          "time": 68.3999999999999,
          "velocity": 0.7874015748031497,
          "duration": 0.5999999999999943
        },
        {
          "name": "G1",
          "midi": 31,
          "time": 69.2999999999999,
          "velocity": 0.7874015748031497,
          "duration": 0.29999999999999716
        },
        {
          "name": "G1",
          "midi": 31,
          "time": 69.89999999999989,
          "velocity": 0.7874015748031497,
          "duration": 0.15000000000000568
        },
        {
          "name": "D0",
          "midi": 14,
          "time": 70.0499999999999,
          "velocity": 0.7874015748031497,
          "duration": 0.5999999999999943
        },
        {
          "name": "G1",
          "midi": 31,
          "time": 70.7999999999999,
          "velocity": 0.7874015748031497,
          "duration": 0.5999999999999943
        },
        {
          "name": "D0",
          "midi": 14,
          "time": 71.69999999999989,
          "velocity": 0.7874015748031497,
          "duration": 0.29999999999999716
        },
        {
          "name": "D0",
          "midi": 14,
          "time": 72.29999999999988,
          "velocity": 0.7874015748031497,
          "duration": 0.15000000000000568
        },
        {
          "name": "G1",
          "midi": 31,
          "time": 72.44999999999989,
          "velocity": 0.7874015748031497,
          "duration": 0.75
        },
        {
          "name": "G1",
          "midi": 31,
          "time": 73.19999999999989,
          "velocity": 0.7874015748031497,
          "duration": 0.5999999999999943
        },
        {
          "name": "D0",
          "midi": 14,
          "time": 74.09999999999988,
          "velocity": 0.7874015748031497,
          "duration": 0.29999999999999716
        },
        {
          "name": "D0",
          "midi": 14,
          "time": 74.69999999999987,
          "velocity": 0.7874015748031497,
          "duration": 0.15000000000000568
        },
        {
          "name": "D0",
          "midi": 14,
          "time": 74.84999999999988,
          "velocity": 0.7874015748031497,
          "duration": 0.45000000000000284
        },
        {
          "name": "G1",
          "midi": 31,
          "time": 75.59999999999988,
          "velocity": 0.7874015748031497,
          "duration": 0.45000000000000284
        },
        {
          "name": "G1",
          "midi": 31,
          "time": 76.49999999999989,
          "velocity": 0.7874015748031497,
          "duration": 0.29999999999999716
        },
        {
          "name": "G1",
          "midi": 31,
          "time": 76.79999999999988,
          "velocity": 0.7874015748031497,
          "duration": 0.15000000000000568
        },
        {
          "name": "G1",
          "midi": 31,
          "time": 76.94999999999989,
          "velocity": 0.7874015748031497,
          "duration": 0.15000000000000568
        },
        {
          "name": "G1",
          "midi": 31,
          "time": 77.0999999999999,
          "velocity": 0.7874015748031497,
          "duration": 0.15000000000000568
        },
        {
          "name": "G1",
          "midi": 31,
          "time": 77.2499999999999,
          "velocity": 0.7874015748031497,
          "duration": 0.15000000000000568
        },
        {
          "name": "G1",
          "midi": 31,
          "time": 77.3999999999999,
          "velocity": 0.7874015748031497,
          "duration": 0.15000000000000568
        },
        {
          "name": "G1",
          "midi": 31,
          "time": 77.54999999999991,
          "velocity": 0.7874015748031497,
          "duration": 0.15000000000000568
        },
        {
          "name": "G1",
          "midi": 31,
          "time": 77.69999999999992,
          "velocity": 0.7874015748031497,
          "duration": 0.15000000000000568
        },
        {
          "name": "D0",
          "midi": 14,
          "time": 77.99999999999993,
          "velocity": 0.7874015748031497,
          "duration": 2.4000000000000057
        },
        {
          "name": "G1",
          "midi": 31,
          "time": 80.39999999999993,
          "velocity": 0.7874015748031497,
          "duration": 2.4000000000000057
    }
  ]
}