{
      "notes": [
        {
          "name": "D0",
          "midi": 14,
          "time": 1.2,
          "velocity": 0.36220472440944884,
          "duration": 0.9062499999999998
        },
        {
          "name": "D0",
          "midi": 14,
          "time": 2.0999999999999996,
          "velocity": 0.36220472440944884,
          "duration": 0.90625
        },
        {
          "name": "D0",
          "midi": 14,
          "time": 2.9999999999999996,
          "velocity": 0.36220472440944884,
          "duration": 0.90625
        },
        {
          "name": "D1",
          "midi": 26,
          "time": 3.8999999999999995,
          "velocity": 0.36220472440944884,
          "duration": 0.90625
        },
        {
          "name": "D1",
          "midi": 26,
          "time": 4.8,
          "velocity": 0.36220472440944884,
          "duration": 0.9062499999999991
        },
        {
          "name": "D1",
          "midi": 26,
          "time": 5.699999999999999,
          "velocity": 0.36220472440944884,
          "duration": 1.8062499999999995
        },
        {
          "name": "C0",
          "midi": 12,
          "time": 7.499999999999999,
          "velocity": 0.36220472440944884,
          "duration": 0.6062499999999984
        },
        {
          "name": "C0",
          "midi": 12,
          "time": 8.099999999999998,
          "velocity": 0.36220472440944884,
          "duration": 0.6062499999999993
        },
        {
          "name": "C0",
          "midi": 12,
          "time": 8.699999999999998,
          "velocity": 0.36220472440944884,
          "duration": 0.6062499999999993
        },
        {
          "name": "C0",
          "midi": 12,
          "time": 9.299999999999997,
          "velocity": 0.36220472440944884,
          "duration": 0.6062499999999993
        },
        {
          "name": "C1",
          "midi": 24,
          "time": 9.899999999999997,
          "velocity": 0.36220472440944884,
          "duration": 0.6062499999999993
        },
        {
          "name": "C1",
          "midi": 24,
          "time": 10.499999999999996,
          "velocity": 0.36220472440944884,
          "duration": 0.6062499999999993
        },
        {
          "name": "C1",
          "midi": 24,
          "time": 11.099999999999996,
          "velocity": 0.36220472440944884,
          "duration": 0.6062499999999993
        },
        {
          "name": "C1",
          "midi": 24,
          "time": 11.699999999999996,
          "velocity": 0.36220472440944884,
          "duration": 0.6062499999999993
        },
        {
          "name": "C0",
          "midi": 12,
          "time": 12.299999999999995,
          "velocity": 0.36220472440944884,
          "duration": 0.6062499999999993
        },
        {
          "name": "C0",
          "midi": 12,
          "time": 12.899999999999995,
          "velocity": 0.36220472440944884,
          "duration": 0.6062499999999993
        },
        {
          "name": "C0",
          "midi": 12,
          "time": 13.499999999999995,
          "velocity": 0.36220472440944884,
          "duration": 0.6062499999999993
        },
        {
          "name": "C0",
          "midi": 12,
          "time": 14.099999999999994,
          "velocity": 0.36220472440944884,
          "duration": 0.6062499999999993
        },
        {
          "name": "C1",
          "midi": 24,
          "time": 14.699999999999994,
          "velocity": 0.36220472440944884,
          "duration": 0.6062499999999993
        },
        {
          "name": "C1",
          "midi": 24,
          "time": 15.299999999999994,
          "velocity": 0.36220472440944884,
          "duration": 0.6062499999999993
        },
        {
          "name": "C1",
          "midi": 24,
          "time": 15.899999999999993,
          "velocity": 0.36220472440944884,
          "duration": 0.6062500000000011
        },
        {
          "name": "C1",
          "midi": 24,
          "time": 16.499999999999993,
          "velocity": 0.36220472440944884,
          "duration": 0.6062500000000028
        },
        {
          "name": "C0",
          "midi": 12,
          "time": 17.099999999999994,
          "velocity": 0.36220472440944884,
          "duration": 0.6062500000000028
        },
        {
          "name": "C0",
          "midi": 12,
          "time": 17.699999999999996,
          "velocity": 0.36220472440944884,
          "duration": 0.6062500000000028
        },
        {
          "name": "C1",
          "midi": 24,
          "time": 18.299999999999997,
          "velocity": 0.36220472440944884,
          "duration": 0.6062500000000028
        },
        {
          "name": "C1",
          "midi": 24,
          "time": 18.9,
          "velocity": 0.36220472440944884,
          "duration": 0.30625000000000213
        },
        {
          "name": "G0",
          "midi": 19,
          "time": 19.2,
          "velocity": 0.36220472440944884,
          "duration": 0.15625000000000355
        },
        {
          "name": "G0",
          "midi": 19,
          "time": 19.35,
          "velocity": 0.36220472440944884,
          "duration": 0.15625000000000355
        },
        {
          "name": "G0",
          "midi": 19,
          "time": 19.500000000000004,
          "velocity": 0.36220472440944884,
          "duration": 0.15625000000000355
        },
        {
          "name": "G0",
          "midi": 19,
          "time": 19.650000000000006,
          "velocity": 0.36220472440944884,
          "duration": 0.15625000000000355
        },
        {
          "name": "G0",
          "midi": 19,
          "time": 19.800000000000008,
          "velocity": 0.36220472440944884,
          "duration": 0.15625000000000355
        },
        {
          "name": "G0",
          "midi": 19,
          "time": 19.95000000000001,
          "velocity": 0.36220472440944884,
          "duration": 0.15625000000000355
        },
        {
          "name": "G0",
          "midi": 19,
          "time": 20.100000000000012,
          "velocity": 0.36220472440944884,
          "duration": 0.15625000000000355
        },
        {
          "name": "G0",
          "midi": 19,
          "time": 20.250000000000014,
          "velocity": 0.36220472440944884,
          "duration": 1.0562500000000021
        },
        {
          "name": "G0",
          "midi": 19,
          "time": 21.300000000000015,
          "velocity": 0.36220472440944884,
          "duration": 0.6062500000000028
        },
        {
          "name": "G1",
          "midi": 31,
          "time": 21.900000000000016,
          "velocity": 0.36220472440944884,
          "duration": 0.15625000000000355
        },
        {
          "name": "G1",
          "midi": 31,
          "time": 22.05000000000002,
          "velocity": 0.36220472440944884,
          "duration": 0.7562500000000014
        },
        {
          "name": "G0",
          "midi": 19,
          "time": 22.80000000000002,
          "velocity": 0.36220472440944884,
          "duration": 0.9062500000000036
        },
        {
          "name": "G1",
          "midi": 31,
          "time": 23.70000000000002,
          "velocity": 0.36220472440944884,
          "duration": 0.6062500000000028
        },
        {
          "name": "G0",
          "midi": 19,
          "time": 24.300000000000022,
          "velocity": 0.36220472440944884,
          "duration": 0.15625000000000355
        },
        {
          "name": "G0",
          "midi": 19,
          "time": 24.450000000000024,
          "velocity": 0.36220472440944884,
          "duration": 0.7562500000000014
        },
        {
          "name": "G0",
          "midi": 19,
          "time": 25.200000000000024,
          "velocity": 0.36220472440944884,
          "duration": 0.9062500000000036
        },
        {
          "name": "G0",
          "midi": 19,
          "time": 26.100000000000026,
          "velocity": 0.36220472440944884,
          "duration": 0.6062500000000028
        },
        {
          "name": "G1",
          "midi": 31,
          "time": 26.700000000000028,
          "velocity": 0.36220472440944884,
          "duration": 0.15625000000000355
        },
        {
          "name": "G1",
          "midi": 31,
          "time": 26.85000000000003,
          "velocity": 0.36220472440944884,
          "duration": 0.7562500000000014
        },
        {
          "name": "G1",
          "midi": 31,
          "time": 27.60000000000003,
          "velocity": 0.36220472440944884,
          "duration": 0.9062500000000036
        },
        {
          "name": "G1",
          "midi": 31,
          "time": 28.500000000000032,
          "velocity": 0.36220472440944884,
          "duration": 0.30625000000000213
        },
        {
          "name": "G1",
          "midi": 31,
          "time": 28.800000000000033,
          "velocity": 0.36220472440944884,
          "duration": 0.15625000000000355
        },
        {
          "name": "G1",
          "midi": 31,
          "time": 28.950000000000035,
          "velocity": 0.36220472440944884,
          "duration": 0.15625000000000355
        },
        {
          "name": "G1",
          "midi": 31,
          "time": 29.100000000000037,
          "velocity": 0.36220472440944884,
          "duration": 0.15625000000000355
        },
        {
          "name": "G1",
          "midi": 31,
          "time": 29.25000000000004,
          "velocity": 0.36220472440944884,
          "duration": 0.15625000000000355
        },
        {
          "name": "G1",
          "midi": 31,
          "time": 29.40000000000004,
          "velocity": 0.36220472440944884,
          "duration": 0.15625000000000355
        },
        {
          "name": "G1",
          "midi": 31,
          "time": 29.550000000000043,
          "velocity": 0.36220472440944884,
          "duration": 0.15625000000000355
        },
        {
          "name": "G1",
          "midi": 31,
          "time": 29.700000000000045,
          "velocity": 0.36220472440944884,
          "duration": 0.15625000000000355
        },
        {
          "name": "G1",
          "midi": 31,
          "time": 29.850000000000048,
          "velocity": 0.36220472440944884,
          "duration": 0.15625
        },
        {
          "name": "C0",
          "midi": 12,
          "time": 30.300000000000047,
          "velocity": 0.36220472440944884,
          "duration": 0.6062500000000028
        },
        {
          "name": "C0",
          "midi": 12,
          "time": 30.90000000000005,
          "velocity": 0.36220472440944884,
          "duration": 0.6062500000000028
        },
        {
          "name": "C0",
          "midi": 12,
          "time": 31.50000000000005,
          "velocity": 0.36220472440944884,
          "duration": 0.6062500000000028
        },
        {
          "name": "C0",
          "midi": 12,
          "time": 32.10000000000005,
          "velocity": 0.36220472440944884,
          "duration": 0.6062500000000028
        },
        {
          "name": "C1",
          "midi": 24,
          "time": 32.70000000000005,
          "velocity": 0.36220472440944884,
          "duration": 0.6062500000000028
        },
        {
          "name": "C1",
          "midi": 24,
          "time": 33.300000000000054,
          "velocity": 0.36220472440944884,
          "duration": 0.6062500000000028
        },
        {
          "name": "C1",
          "midi": 24,
          "time": 33.900000000000055,
          "velocity": 0.36220472440944884,
          "duration": 0.6062500000000028
        },
        {
          "name": "C1",
          "midi": 24,
          "time": 34.50000000000006,
          "velocity": 0.36220472440944884,
          "duration": 0.6062500000000028
        },
        {
          "name": "C0",
          "midi": 12,
          "time": 35.10000000000006,
          "velocity": 0.36220472440944884,
          "duration": 0.6062500000000028
        },
        {
          "name": "C0",
          "midi": 12,
          "time": 35.70000000000006,
          "velocity": 0.36220472440944884,
          "duration": 0.6062500000000028
        },
        {
          "name": "C1",
          "midi": 24,
          "time": 36.30000000000006,
          "velocity": 0.36220472440944884,
          "duration": 0.6062500000000028
        },
        {
          "name": "C1",
          "midi": 24,
          "time": 36.90000000000006,
          "velocity": 0.36220472440944884,
          "duration": 0.6062500000000028
        },
        {
          "name": "C0",
          "midi": 12,
          "time": 37.500000000000064,
          "velocity": 0.36220472440944884,
          "duration": 0.6062500000000028
        },
        {
          "name": "C0",
          "midi": 12,
          "time": 38.100000000000065,
          "velocity": 0.36220472440944884,
          "duration": 0.3062500000000057
        },
        {
          "name": "G0",
          "midi": 19,
          "time": 38.40000000000007,
          "velocity": 0.36220472440944884,
          "duration": 0.15625
        },
        {
          "name": "G0",
          "midi": 19,
          "time": 38.55000000000007,
          "velocity": 0.36220472440944884,
          "duration": 0.15625
        },
        {
          "name": "G0",
          "midi": 19,
          "time": 38.70000000000007,
          "velocity": 0.36220472440944884,
          "duration": 0.15625
        },
        {
          "name": "G0",
          "midi": 19,
          "time": 38.850000000000065,
          "velocity": 0.36220472440944884,
          "duration": 0.15625
        },
        {
          "name": "G1",
          "midi": 31,
          "time": 39.000000000000064,
          "velocity": 0.36220472440944884,
          "duration": 0.15625
        },
        {
          "name": "G1",
          "midi": 31,
          "time": 39.15000000000006,
          "velocity": 0.36220472440944884,
          "duration": 0.15625
        },
        {
          "name": "G1",
          "midi": 31,
          "time": 39.30000000000006,
          "velocity": 0.36220472440944884,
          "duration": 0.15625
        },
        {
          "name": "G1",
          "midi": 31,
          "time": 39.45000000000006,
          "velocity": 0.36220472440944884,
          "duration": 0.15625
        },
        {
          "name": "G1",
          "midi": 31,
          "time": 41.40000000000006,
          "velocity": 0.36220472440944884,
          "duration": 0.6062500000000028
        },
        {
          "name": "G0",
          "midi": 19,
          "time": 42.000000000000064,
          "velocity": 0.36220472440944884,
          "duration": 0.6062500000000028
        },
        {
          "name": "G1",
          "midi": 31,
          "time": 42.600000000000065,
          "velocity": 0.36220472440944884,
          "duration": 0.6062500000000028
        },
        {
          "name": "G1",
          "midi": 31,
          "time": 43.80000000000007,
          "velocity": 0.36220472440944884,
          "duration": 0.6062500000000028
        },
        {
          "name": "G0",
          "midi": 19,
          "time": 44.40000000000007,
          "velocity": 0.36220472440944884,
          "duration": 0.6062500000000028
        },
        {
          "name": "G1",
          "midi": 31,
          "time": 45.00000000000007,
          "velocity": 0.36220472440944884,
          "duration": 0.6062500000000028
        },
        {
          "name": "G1",
          "midi": 31,
          "time": 46.200000000000074,
          "velocity": 0.36220472440944884,
          "duration": 0.6062500000000028
        },
        {
          "name": "G0",
          "midi": 19,
          "time": 46.800000000000075,
          "velocity": 0.36220472440944884,
          "duration": 0.6062500000000028
        },
        {
          "name": "G1",
          "midi": 31,
          "time": 47.40000000000008,
          "velocity": 0.36220472440944884,
          "duration": 0.6062500000000028
        },
        {
          "name": "G1",
          "midi": 31,
          "time": 48.60000000000008,
          "velocity": 0.36220472440944884,
          "duration": 0.6062500000000028
        },
        {
          "name": "D0",
          "midi": 14,
          "time": 49.20000000000008,
          "velocity": 0.36220472440944884,
          "duration": 0.6062500000000028
        },
        {
          "name": "D1",
          "midi": 26,
          "time": 49.80000000000008,
          "velocity": 0.36220472440944884,
          "duration": 0.6062500000000028
        },
        {
          "name": "D0",
          "midi": 14,
          "time": 50.400000000000084,
          "velocity": 0.36220472440944884,
          "duration": 0.6062500000000028
        },
        {
          "name": "D1",
          "midi": 26,
          "time": 51.000000000000085,
          "velocity": 0.36220472440944884,
          "duration": 0.6062500000000028
        },
        {
          "name": "D0",
          "midi": 14,
          "time": 51.60000000000009,
          "velocity": 0.36220472440944884,
          "duration": 0.6062500000000028
        },
        {
          "name": "D1",
          "midi": 26,
          "time": 52.20000000000009,
          "velocity": 0.36220472440944884,
          "duration": 0.6062500000000028
        },
        {
          "name": "D0",
          "midi": 14,
          "time": 52.80000000000009,
          "velocity": 0.36220472440944884,
          "duration": 0.6062500000000028
        },
        {
          "name": "D1",
          "midi": 26,
          "time": 53.40000000000009,
          "velocity": 0.36220472440944884,
          "duration": 0.6062500000000028
        },
        {
          "name": "D0",
          "midi": 14,
          "time": 54.00000000000009,
          "velocity": 0.36220472440944884,
          "duration": 0.6062500000000028
        },
        {
          "name": "D1",
          "midi": 26,
          "time": 54.600000000000094,
          "velocity": 0.36220472440944884,
          "duration": 0.6062500000000028
        },
        {
          "name": "D0",
          "midi": 14,
          "time": 55.200000000000095,
          "velocity": 0.36220472440944884,
          "duration": 0.6062500000000028
        },
        {
          "name": "D1",
          "midi": 26,
          "time": 55.8000000000001,
          "velocity": 0.36220472440944884,
          "duration": 0.6062500000000028
        },
        {
          "name": "D0",
          "midi": 14,
          "time": 56.4000000000001,
          "velocity": 0.36220472440944884,
          "duration": 0.6062500000000028
        },
        {
          "name": "D1",
          "midi": 26,
          "time": 57.0000000000001,
          "velocity": 0.36220472440944884,
          "duration": 0.6062500000000028
        },
        {
          "name": "G1",
          "midi": 31,
          "time": 57.6000000000001,
          "velocity": 0.36220472440944884,
          "duration": 0.15625
        },
        {
          "name": "G1",
          "midi": 31,
          "time": 57.7500000000001,
          "velocity": 0.36220472440944884,
          "duration": 0.15625
        },
        {
          "name": "G1",
          "midi": 31,
          "time": 57.9000000000001,
          "velocity": 0.36220472440944884,
          "duration": 0.15625
        },
        {
          "name": "G1",
          "midi": 31,
          "time": 58.0500000000001,
          "velocity": 0.36220472440944884,
          "duration": 0.15625
        },
        {
          "name": "G0",
          "midi": 19,
          "time": 58.200000000000095,
          "velocity": 0.36220472440944884,
          "duration": 0.15625
        },
        {
          "name": "G0",
          "midi": 19,
          "time": 58.350000000000094,
          "velocity": 0.36220472440944884,
          "duration": 0.15625
        },
        {
          "name": "G0",
          "midi": 19,
          "time": 58.50000000000009,
          "velocity": 0.36220472440944884,
          "duration": 0.15625
        },
        {
          "name": "G0",
          "midi": 19,
          "time": 58.65000000000009,
          "velocity": 0.36220472440944884,
          "duration": 0.45625000000000426
        },
        {
          "name": "C0",
          "midi": 12,
          "time": 59.100000000000094,
          "velocity": 0.36220472440944884,
          "duration": 0.6062500000000028
        },
        {
          "name": "C0",
          "midi": 12,
          "time": 59.700000000000095,
          "velocity": 0.36220472440944884,
          "duration": 0.6062500000000028
        },
        {
          "name": "C1",
          "midi": 24,
          "time": 60.3000000000001,
          "velocity": 0.36220472440944884,
          "duration": 0.6062500000000028
        },
        {
          "name": "C1",
          "midi": 24,
          "time": 60.9000000000001,
          "velocity": 0.36220472440944884,
          "duration": 0.6062500000000028
        },
        {
          "name": "C0",
          "midi": 12,
          "time": 61.5000000000001,
          "velocity": 0.36220472440944884,
          "duration": 0.6062500000000028
        },
        {
          "name": "C0",
          "midi": 12,
          "time": 62.1000000000001,
          "velocity": 0.36220472440944884,
          "duration": 0.6062500000000028
        },
        {
          "name": "C1",
          "midi": 24,
          "time": 62.7000000000001,
          "velocity": 0.36220472440944884,
          "duration": 0.6062500000000028
        },
        {
          "name": "C1",
          "midi": 24,
          "time": 63.300000000000104,
          "velocity": 0.36220472440944884,
          "duration": 0.3062500000000057
        },
        {
          "name": "G0",
          "midi": 19,
          "time": 63.60000000000011,
          "velocity": 0.36220472440944884,
          "duration": 0.90625
        },
        {
          "name": "G0",
          "midi": 19,
          "time": 64.50000000000011,
          "velocity": 0.36220472440944884,
          "duration": 0.6062499999999886
        },
        {
          "name": "G1",
          "midi": 31,
          "time": 65.10000000000011,
          "velocity": 0.36220472440944884,
          "duration": 0.1562499999999858
        },
        {
          "name": "G1",
          "midi": 31,
          "time": 65.2500000000001,
          "velocity": 0.36220472440944884,
          "duration": 0.7562499999999943
        },
        {
          "name": "G0",
          "midi": 19,
          "time": 66.0000000000001,
          "velocity": 0.36220472440944884,
          "duration": 0.9062499999999858
        },
        {
          "name": "G1",
          "midi": 31,
          "time": 66.90000000000009,
          "velocity": 0.36220472440944884,
          "duration": 0.6062499999999886
        },
        {
          "name": "G0",
          "midi": 19,
          "time": 67.50000000000009,
          "velocity": 0.36220472440944884,
          "duration": 0.1562499999999858
        },
        {
          "name": "G0",
          "midi": 19,
          "time": 67.65000000000008,
          "velocity": 0.36220472440944884,
          "duration": 0.7562499999999943
        },
        {
          "name": "G1",
          "midi": 31,
          "time": 68.40000000000008,
          "velocity": 0.36220472440944884,
          "duration": 0.6062499999999886
        },
        {
          "name": "G1",
          "midi": 31,
          "time": 69.00000000000007,
          "velocity": 0.36220472440944884,
          "duration": 0.6062499999999886
        },
        {
          "name": "G1",
          "midi": 31,
          "time": 69.60000000000007,
          "velocity": 0.36220472440944884,
          "duration": 0.6062499999999886
        },
        {
          "name": "G0",
          "midi": 19,
          "time": 70.80000000000005,
          "velocity": 0.36220472440944884,
          "duration": 0.6062499999999886
        },
        {
          "name": "G0",
          "midi": 19,
          "time": 71.40000000000005,
          "velocity": 0.36220472440944884,
          "duration": 0.6062499999999886
        },
        {
          "name": "G0",
          "midi": 19,
          "time": 72.00000000000004,
          "velocity": 0.36220472440944884,
          "duration": 0.3062499999999915
        },
        {
          "name": "G0",
          "midi": 19,
          "time": 72.30000000000004,
          "velocity": 0.36220472440944884,
          "duration": 0.3062499999999915
        },
        {
          "name": "C1",
          "midi": 24,
          "time": 73.50000000000003,
          "velocity": 0.36220472440944884,
          "duration": 0.6062499999999886
        },
        {
          "name": "C1",
          "midi": 24,
          "time": 74.10000000000002,
          "velocity": 0.36220472440944884,
          "duration": 0.6062499999999886
        },
        {
          "name": "C1",
          "midi": 24,
          "time": 74.70000000000002,
          "velocity": 0.36220472440944884,
          "duration": 0.6062499999999886
        },
        {
          "name": "C1",
          "midi": 24,
          "time": 75.30000000000001,
          "velocity": 0.36220472440944884,
          "duration": 0.6062499999999886
        },
        {
          "name": "C0",
          "midi": 12,
          "time": 75.9,
          "velocity": 0.36220472440944884,
          "duration": 0.6062499999999886
        },
        {
          "name": "C0",
          "midi": 12,
          "time": 76.5,
          "velocity": 0.36220472440944884,
          "duration": 0.3062499999999915
        },
        {
          "name": "G0",
          "midi": 19,
          "time": 76.8,
          "velocity": 0.36220472440944884,
          "duration": 0.1562499999999858
        },
        {
          "name": "G1",
          "midi": 31,
          "time": 76.94999999999999,
          "velocity": 0.36220472440944884,
          "duration": 0.1562499999999858
        },
        {
          "name": "G0",
          "midi": 19,
          "time": 77.09999999999998,
          "velocity": 0.36220472440944884,
          "duration": 0.1562499999999858
        },
        {
          "name": "G1",
          "midi": 31,
          "time": 77.24999999999997,
          "velocity": 0.36220472440944884,
          "duration": 0.1562499999999858
        },
        {
          "name": "G0",
          "midi": 19,
          "time": 77.39999999999996,
          "velocity": 0.36220472440944884,
          "duration": 0.1562499999999858
        },
        {
          "name": "G1",
          "midi": 31,
          "time": 77.54999999999995,
          "velocity": 0.36220472440944884,
          "duration": 0.1562499999999858
        },
        {
          "name": "G0",
          "midi": 19,
          "time": 77.69999999999995,
          "velocity": 0.36220472440944884,
          "duration": 0.1562499999999858
        },
        {
          "name": "G1",
          "midi": 31,
          "time": 77.84999999999994,
          "velocity": 0.36220472440944884,
          "duration": 0.15625
        }
      ]
}